
<svg xmlns="http://www.w3.org/2000/svg" viewBox="0 0 512 512"><g data-name="Tower Bridge"><path style="fill:#677e8f" d="M213.333 170.667v42.666l192 21.334v-21.334l-192-42.666z"/><path style="fill:#556e81" d="M21.333 384v64l469.334-85.333v-21.334L21.333 384z"/><path style="fill:#456075" d="M234.667 409.212 256 405.333v-42.666l-21.333 1.938v44.607zM405.333 378.182l21.334-3.879v-27.152l-21.334 1.94v29.091z"/><path style="fill:#d6a436" d="M320 128h21.333v42.667H320zM384 128h21.333v42.667H384z"/><path style="fill:#e0bb69" d="M64 106.667h42.667v42.667H64z"/><path style="fill:#cb8c01" d="M85.333 106.667h21.333v42.667H85.333z"/><path style="fill:#d6a436" d="M192 106.667h42.667v42.667H192z"/><path style="fill:#cb8c01" d="M213.333 106.667h21.333v42.667h-21.333z"/><path d="m38.635 297.01-11.437-18C68.28 252.906 85.333 209.458 85.333 192h21.334c0 24.917-21.625 75.531-68.032 105.01z" style="fill:#456075"/><path d="m40.313 339.563-11.938-17.688C82.583 285.26 85.333 207.26 85.333 192h21.334c0 17.156-3.198 104.896-66.355 147.563zM490.667 298.667C413.187 298.667 320 233.157 320 192h21.333c0 21.969 75.938 85.333 149.334 85.333z" style="fill:#456075"/><path d="M490.667 341.333C363.28 341.333 320 204.093 320 192h10.667l10.646-.417C342.688 204.667 384.342 320 490.667 320z" style="fill:#456075"/><path style="fill:#3d3f3c" d="m341.333 149.333 21.334-64 21.333 64h-42.667z"/><path style="fill:#d6a436" d="M298.667 384h64v42.667h-64z"/><path style="fill:#9e6611" d="M341.333 384h21.333v42.667h-21.333z"/><path style="fill:#d6a436" d="M362.667 384h64v42.667h-64z"/><path style="fill:#d6a436" d="M405.333 405.333H384v-42.666h-42.667v42.666H320v-256h85.333v256z"/><path style="fill:#e0bb69" d="M320 128h21.333v256H320zM384 128h21.333v256H384z"/><path style="fill:#3d3f3c" d="M341.333 192H384v21.333h-42.667z"/><path style="fill:#e9cf95" d="M384 256h21.333v21.333H384z"/><path style="fill:#cb8c01" d="M384 320h-42.667v64h21.334v-42.667H384V320z"/><path d="M362.667 341.333A21.333 21.333 0 0 1 384 362.667V384h-42.667v-21.333a21.333 21.333 0 0 1 21.334-21.334z" style="fill:#3d3f3c"/><path style="fill:#2c2e2b" d="M341.333 362.667h21.333V384h-21.333z"/><path style="fill:#e0bb69" d="M320 149.333h85.333v21.333H320z"/><path style="fill:#7f92a0" d="m490.667 362.667-85.334 7.757v29.092L490.667 384v-21.333z"/><path style="fill:#cb8c01" d="M405.333 384h21.333v42.667h-21.333z"/><path style="fill:#e0bb69" d="M320 213.333h85.333v21.333H320z"/><path style="fill:#f4e8cc" d="M320 213.333h21.333v21.333H320zM320 149.333h21.333v21.333H320z"/><path style="fill:#2c2e2b" d="M341.333 192h21.333v21.333h-21.333z"/><path style="fill:#f4e8cc" d="M384 213.333h21.333v21.333H384z"/><path style="fill:#677e8f" d="M405.333 213.333 298.667 189.63v33.185l106.666 11.852v-21.334z"/><path style="fill:#f4e8cc" d="M384 149.333h21.333v21.333H384z"/><path style="fill:#3d3f3c" d="M341.333 256H384v21.333h-42.667z"/><path style="fill:#2c2e2b" d="M341.333 256h21.333v21.333h-21.333z"/><path style="fill:#242623" d="M320 106.667V128h21.333L320 106.667zM405.333 106.667 384 128h21.333v-21.333z"/><path style="fill:#2c2e2b" d="M64 106.667V64l42.667 42.667H64zM192 106.667 234.667 64v42.667H192z"/><path style="fill:#242623" d="m106.667 128 42.666-106.667L192 128h-85.333z"/><path style="fill:#777976" d="m106.667 128 42.666-106.667L170.667 128h-64z"/><path style="fill:#d6a436" d="M234.667 128H64v362.667h42.667v-85.334H192v85.334h42.667V128z"/><path style="fill:#e0bb69" d="M106.667 320h42.667v21.333h-42.667zM106.667 192H128v21.333h-21.333z"/><path style="fill:#cb8c01" d="M192 149.333H85.333v64h21.334v-42.666H192v-21.334zM106.667 234.667H85.333v170.666h21.334V256H192v-21.333h-85.333z"/><path d="M192 309.333h-21.333v-32A21.361 21.361 0 0 0 149.333 256v-21.333A42.709 42.709 0 0 1 192 277.333zM192 213.333h-21.333V192a21.361 21.361 0 0 0-21.334-21.333v-21.334A42.709 42.709 0 0 1 192 192zM213.333 437.333H192v-32a42.709 42.709 0 0 0-42.667-42.666v-21.334a64.07 64.07 0 0 1 64 64z" style="fill:#e9cf95"/><path style="fill:#e0bb69" d="M192 128h42.667v362.667H192z"/><path style="fill:#d6a436" d="M192 149.333h42.667v21.333H192z"/><path style="fill:#cb8c01" d="M213.333 128h21.333v362.667h-21.333z"/><path style="fill:#e9cf95" d="M64 128h21.333v362.667H64z"/><path style="fill:#e0bb69" d="M64 149.333V128h170.667v21.333M64 234.667v-21.334h170.667v21.334"/><path style="fill:#e9cf95" d="M64 128h42.667v21.333H64z"/><path style="fill:#efddb4" d="M192 128h42.667v21.333H192zM192 213.333h42.667v21.333H192z"/><path style="fill:#e0bb69" d="M213.333 128h21.333v21.333h-21.333zM213.333 213.333h21.333v21.333h-21.333z"/><path style="fill:#efddb4" d="M64 128h42.667v21.333H64z"/><path style="fill:#e0bb69" d="M64 149.333h42.667v21.333H64z"/><path style="fill:#efddb4" d="M64 213.333h42.667v21.333H64z"/><path style="fill:#f4e8cc" d="M64 128h21.333v21.333H64zM64 213.333h21.333v21.333H64z"/><path d="M149.333 256a21.333 21.333 0 0 1 21.334 21.333v21.334H128v-21.334A21.333 21.333 0 0 1 149.333 256z" style="fill:#3d3f3c"/><path style="fill:#2c2e2b" d="M128 277.333h21.333v21.333H128z"/><path d="M149.333 170.667A21.333 21.333 0 0 1 170.667 192v21.333H128V192a21.333 21.333 0 0 1 21.333-21.333zM149.333 85.333a21.333 21.333 0 0 1 21.334 21.334V128H128v-21.333a21.333 21.333 0 0 1 21.333-21.334zM149.333 362.667A42.667 42.667 0 0 1 192 405.333v21.334h-85.333v-21.334a42.667 42.667 0 0 1 42.666-42.666z" style="fill:#3d3f3c"/><path d="M128 426.667h-21.333v-21.334a42.709 42.709 0 0 1 42.666-42.666V384A21.361 21.361 0 0 0 128 405.333z" style="fill:#2c2e2b"/><path style="fill:#b37900" d="M213.333 149.333h21.333v21.333h-21.333z"/><path style="fill:#d6a436" d="M192 234.667h42.667V256H192z"/><path style="fill:#e0bb69" d="M64 234.667h21.333V256H64z"/><path style="fill:#b37900" d="M213.333 234.667h21.333V256h-21.333z"/><path style="fill:#d6a436" d="M85.333 128h21.333v21.333H85.333zM85.333 213.333h21.333v21.333H85.333z"/><path style="fill:#e9cf95" d="M21.333 426.667h128v64h-128z"/><path style="fill:#efddb4" d="M64 426.667h42.667V448H64z"/><path style="fill:#cb8c01" d="M106.667 426.667h42.667v64h-42.667z"/><path style="fill:#d6a436" d="M128 426.667h21.333V448H128z"/><path style="fill:#e0bb69" d="M149.333 426.667h128v64h-128z"/><path style="fill:#cb8c01" d="M234.667 426.667h42.667v64h-42.667z"/><path d="M21.333 384v-21.333c86.427 0 192-78.75 192-170.667h21.334c0 106.354-116.709 192-213.334 192z" style="fill:#7f92a0"/><path d="M21.333 341.333V320c110.313 0 192-101.25 192-128h21.334c0 36.094-88.521 149.333-213.334 149.333z" style="fill:#7f92a0"/><path d="M475.23 340.208C384 294.594 384 225.302 384 192h21.333c0 31.25 0 89.406 79.438 129.125z" style="fill:#93a3af"/><path d="M476.625 298.115C408.333 275.355 384 228.375 384 192h21.333c0 28.938 20.5 66.698 78.042 85.885z" style="fill:#93a3af"/><path style="fill:#efddb4" d="M21.333 469.333H64v21.333H21.333z"/><path style="fill:#e9cf95" d="M149.333 448H192v21.333h-42.667z"/><path style="fill:#d6a436" d="M106.667 469.333h42.667v21.333h-42.667zM234.667 469.333h42.667v21.333h-42.667z"/><path style="fill:#7f92a0" d="m384 372.363-149.333 13.576v44.607L384 403.395v-31.032z"/><path style="fill:#d6a436" d="M234.667 426.667H256V448h-21.333z"/><path style="fill:#e9cf95" d="M213.333 469.333h21.333v21.333h-21.333zM213.333 426.667h21.333V448h-21.333z"/><path style="fill:#9e6611" d="M85.333 234.667h21.333V256H85.333zM85.333 149.333h21.333v21.333H85.333z"/><path style="fill:#cb8c01" d="M341.333 170.667H384V192h-42.667z"/><path style="fill:#9e6611" d="M341.333 170.667h21.333V192h-21.333z"/><path style="fill:#cb8c01" d="M341.333 234.667H384V256h-42.667z"/><path style="fill:#9e6611" d="M341.333 234.667h21.333V256h-21.333zM341.333 320h21.333v21.333h-21.333z"/><path style="fill:#2c2e2b" d="M128 192h21.333v21.333H128zM128 106.667h21.333V128H128z"/><path style="fill:#d6a436" d="M213.333 320h21.333v21.333h-21.333zM213.333 277.333h21.333v21.333h-21.333z"/><path style="fill:#e9cf95" d="M192 298.667h21.333V320H192zM384 362.667h21.333V384H384z"/><path style="fill:#7f92a0" d="M21.333 405.333v64l192-34.909v-46.545l-192 17.454z"/><path style="fill:#f4e8cc" d="M341.333 277.333H384v21.333h-42.667z"/><path style="fill:#e9cf95" d="M320 298.667h21.333V320H320zM384 320h21.333v21.333H384zM320 256h21.333v21.333H320z"/><path style="fill:#e0bb69" d="M384 405.333h21.333v21.333H384z"/><path style="fill:#556e81" d="m184.071 169.045 12.405 1.378v-22.052l-12.405-2.757v23.431z"/></g></svg>